<mxfile host="app.diagrams.net" modified="2022-11-16T12:17:03.043Z" agent="5.0 (Windows NT 10.0; Win64; x64) AppleWebKit/537.36 (KHTML, like Gecko) Chrome/107.0.0.0 Safari/537.36 Edg/107.0.1418.42" etag="i-3UWt6tzly62jbT_Q5M" version="20.5.3" type="github">
  <diagram id="ltYNvThaJfcCqLtF1Dt1" name="Page-1">
    <mxGraphModel dx="1313" dy="834" grid="1" gridSize="10" guides="1" tooltips="1" connect="1" arrows="1" fold="1" page="1" pageScale="1" pageWidth="850" pageHeight="1100" math="0" shadow="0">
      <root>
        <mxCell id="0" />
        <mxCell id="1" parent="0" />
        <mxCell id="kFe0QlRo4TSgEkunMuAJ-40" style="edgeStyle=orthogonalEdgeStyle;curved=1;rounded=0;orthogonalLoop=1;jettySize=auto;html=1;entryX=0.471;entryY=-0.033;entryDx=0;entryDy=0;entryPerimeter=0;" edge="1" parent="1" source="kFe0QlRo4TSgEkunMuAJ-1" target="kFe0QlRo4TSgEkunMuAJ-3">
          <mxGeometry relative="1" as="geometry">
            <Array as="points">
              <mxPoint x="391" y="140" />
              <mxPoint x="485" y="140" />
            </Array>
          </mxGeometry>
        </mxCell>
        <mxCell id="kFe0QlRo4TSgEkunMuAJ-41" style="edgeStyle=orthogonalEdgeStyle;curved=1;rounded=0;orthogonalLoop=1;jettySize=auto;html=1;" edge="1" parent="1" source="kFe0QlRo4TSgEkunMuAJ-1" target="kFe0QlRo4TSgEkunMuAJ-2">
          <mxGeometry relative="1" as="geometry">
            <Array as="points">
              <mxPoint x="391" y="150" />
              <mxPoint x="279" y="150" />
            </Array>
          </mxGeometry>
        </mxCell>
        <mxCell id="kFe0QlRo4TSgEkunMuAJ-1" value="" style="aspect=fixed;html=1;points=[];align=center;image;fontSize=12;image=img/lib/azure2/compute/Virtual_Machine.svg;" vertex="1" parent="1">
          <mxGeometry x="356" y="30" width="69" height="64" as="geometry" />
        </mxCell>
        <mxCell id="kFe0QlRo4TSgEkunMuAJ-2" value="" style="aspect=fixed;html=1;points=[];align=center;image;fontSize=12;image=img/lib/azure2/compute/Disks_Classic.svg;" vertex="1" parent="1">
          <mxGeometry x="250" y="200" width="56.99999999999999" height="56.00000000000001" as="geometry" />
        </mxCell>
        <mxCell id="kFe0QlRo4TSgEkunMuAJ-42" style="edgeStyle=orthogonalEdgeStyle;curved=1;rounded=0;orthogonalLoop=1;jettySize=auto;html=1;" edge="1" parent="1" source="kFe0QlRo4TSgEkunMuAJ-3" target="kFe0QlRo4TSgEkunMuAJ-8">
          <mxGeometry relative="1" as="geometry" />
        </mxCell>
        <mxCell id="kFe0QlRo4TSgEkunMuAJ-47" style="edgeStyle=orthogonalEdgeStyle;curved=1;rounded=0;orthogonalLoop=1;jettySize=auto;html=1;" edge="1" parent="1" source="kFe0QlRo4TSgEkunMuAJ-3" target="kFe0QlRo4TSgEkunMuAJ-5">
          <mxGeometry relative="1" as="geometry">
            <Array as="points">
              <mxPoint x="487" y="360" />
              <mxPoint x="700" y="360" />
            </Array>
          </mxGeometry>
        </mxCell>
        <mxCell id="kFe0QlRo4TSgEkunMuAJ-48" style="edgeStyle=orthogonalEdgeStyle;curved=1;rounded=0;orthogonalLoop=1;jettySize=auto;html=1;entryX=0.536;entryY=0.015;entryDx=0;entryDy=0;entryPerimeter=0;" edge="1" parent="1" source="kFe0QlRo4TSgEkunMuAJ-3" target="kFe0QlRo4TSgEkunMuAJ-7">
          <mxGeometry relative="1" as="geometry">
            <Array as="points">
              <mxPoint x="487" y="360" />
              <mxPoint x="281" y="360" />
            </Array>
          </mxGeometry>
        </mxCell>
        <mxCell id="kFe0QlRo4TSgEkunMuAJ-49" style="edgeStyle=orthogonalEdgeStyle;curved=1;rounded=0;orthogonalLoop=1;jettySize=auto;html=1;" edge="1" parent="1" source="kFe0QlRo4TSgEkunMuAJ-3" target="kFe0QlRo4TSgEkunMuAJ-8">
          <mxGeometry relative="1" as="geometry" />
        </mxCell>
        <mxCell id="kFe0QlRo4TSgEkunMuAJ-3" value="" style="aspect=fixed;html=1;points=[];align=center;image;fontSize=12;image=img/lib/azure2/networking/Network_Interfaces.svg;" vertex="1" parent="1">
          <mxGeometry x="453" y="200" width="68" height="60" as="geometry" />
        </mxCell>
        <mxCell id="kFe0QlRo4TSgEkunMuAJ-45" style="edgeStyle=orthogonalEdgeStyle;curved=1;rounded=0;orthogonalLoop=1;jettySize=auto;html=1;entryX=0.5;entryY=1.017;entryDx=0;entryDy=0;entryPerimeter=0;" edge="1" parent="1" source="kFe0QlRo4TSgEkunMuAJ-5" target="kFe0QlRo4TSgEkunMuAJ-3">
          <mxGeometry relative="1" as="geometry">
            <Array as="points">
              <mxPoint x="702" y="360" />
              <mxPoint x="487" y="360" />
            </Array>
          </mxGeometry>
        </mxCell>
        <mxCell id="kFe0QlRo4TSgEkunMuAJ-5" value="" style="aspect=fixed;html=1;points=[];align=center;image;fontSize=12;image=img/lib/azure2/networking/Virtual_Networks.svg;" vertex="1" parent="1">
          <mxGeometry x="642.75" y="398" width="117.25" height="70" as="geometry" />
        </mxCell>
        <mxCell id="kFe0QlRo4TSgEkunMuAJ-46" style="edgeStyle=orthogonalEdgeStyle;curved=1;rounded=0;orthogonalLoop=1;jettySize=auto;html=1;entryX=0.485;entryY=1;entryDx=0;entryDy=0;entryPerimeter=0;" edge="1" parent="1" source="kFe0QlRo4TSgEkunMuAJ-7" target="kFe0QlRo4TSgEkunMuAJ-3">
          <mxGeometry relative="1" as="geometry">
            <Array as="points">
              <mxPoint x="279" y="360" />
              <mxPoint x="486" y="360" />
            </Array>
          </mxGeometry>
        </mxCell>
        <mxCell id="kFe0QlRo4TSgEkunMuAJ-7" value="" style="aspect=fixed;html=1;points=[];align=center;image;fontSize=12;image=img/lib/azure2/networking/Network_Security_Groups.svg;" vertex="1" parent="1">
          <mxGeometry x="251" y="400" width="56.00000000000001" height="68" as="geometry" />
        </mxCell>
        <mxCell id="kFe0QlRo4TSgEkunMuAJ-43" style="edgeStyle=orthogonalEdgeStyle;curved=1;rounded=0;orthogonalLoop=1;jettySize=auto;html=1;" edge="1" parent="1" source="kFe0QlRo4TSgEkunMuAJ-8" target="kFe0QlRo4TSgEkunMuAJ-3">
          <mxGeometry relative="1" as="geometry" />
        </mxCell>
        <mxCell id="kFe0QlRo4TSgEkunMuAJ-8" value="" style="aspect=fixed;html=1;points=[];align=center;image;fontSize=12;image=img/lib/azure2/networking/Public_IP_Addresses_Classic.svg;" vertex="1" parent="1">
          <mxGeometry x="443.92" y="400" width="86.16" height="70" as="geometry" />
        </mxCell>
        <mxCell id="kFe0QlRo4TSgEkunMuAJ-17" value="&lt;b&gt;Virtual Machine&lt;/b&gt;" style="text;html=1;strokeColor=none;fillColor=none;align=center;verticalAlign=middle;whiteSpace=wrap;rounded=0;" vertex="1" parent="1">
          <mxGeometry x="333" width="120" height="30" as="geometry" />
        </mxCell>
        <mxCell id="kFe0QlRo4TSgEkunMuAJ-29" value="&lt;b&gt;Storage Disk&lt;/b&gt;" style="text;html=1;strokeColor=none;fillColor=none;align=center;verticalAlign=middle;whiteSpace=wrap;rounded=0;" vertex="1" parent="1">
          <mxGeometry x="228.5" y="260" width="100" height="30" as="geometry" />
        </mxCell>
        <mxCell id="kFe0QlRo4TSgEkunMuAJ-30" value="&lt;b&gt;NIC&lt;/b&gt;" style="text;html=1;strokeColor=none;fillColor=none;align=center;verticalAlign=middle;whiteSpace=wrap;rounded=0;" vertex="1" parent="1">
          <mxGeometry x="521" y="215" width="60" height="30" as="geometry" />
        </mxCell>
        <mxCell id="kFe0QlRo4TSgEkunMuAJ-31" value="&lt;b&gt;Network Security Groups&lt;/b&gt;" style="text;html=1;strokeColor=none;fillColor=none;align=center;verticalAlign=middle;whiteSpace=wrap;rounded=0;" vertex="1" parent="1">
          <mxGeometry x="194" y="480" width="170" height="30" as="geometry" />
        </mxCell>
        <mxCell id="kFe0QlRo4TSgEkunMuAJ-32" value="&lt;b&gt;IP Address&lt;/b&gt;" style="text;html=1;strokeColor=none;fillColor=none;align=center;verticalAlign=middle;whiteSpace=wrap;rounded=0;" vertex="1" parent="1">
          <mxGeometry x="443.92" y="480" width="80" height="30" as="geometry" />
        </mxCell>
        <mxCell id="kFe0QlRo4TSgEkunMuAJ-33" value="&lt;b&gt;Virtual Networks&lt;/b&gt;" style="text;html=1;strokeColor=none;fillColor=none;align=center;verticalAlign=middle;whiteSpace=wrap;rounded=0;" vertex="1" parent="1">
          <mxGeometry x="656" y="480" width="104" height="30" as="geometry" />
        </mxCell>
      </root>
    </mxGraphModel>
  </diagram>
</mxfile>
